<?xml version="1.0" encoding="utf-8"?>
<!-- Generator: Adobe Illustrator 23.0.2, SVG Export Plug-In . SVG Version: 6.00 Build 0)  -->
<svg version="1.1" id="Layer_1" xmlns="http://www.w3.org/2000/svg" xmlns:xlink="http://www.w3.org/1999/xlink" x="0px" y="0px"
	 viewBox="0 0 500 500" style="enable-background:new 0 0 500 500;" xml:space="preserve">
<style type="text/css">
	.st0{fill:#222831;}
</style>
<g>
	<path class="st0" d="M249,267.4c-12.5,0.6-24.7-4-37-8.1c-65.8-21.9-131.6-43.8-197.4-65.8c-4.1-1.4-8.1-3.5-11.6-6.1
		c-4.1-3.1-4-7.6,0.2-10.5c3.6-2.6,7.8-4.8,12-6.1c70.2-21.2,140.4-42.2,210.6-63.3c17-5.1,33.7-4.5,50.6,0.6
		c63.7,19.3,127.4,38.3,191.1,57.4c6.9,2.1,13.9,4.1,20.8,6.5c3.1,1.1,6.1,2.8,8.6,4.9c4.2,3.4,4.1,8-0.4,11.1
		c-3.4,2.3-7.2,4.2-11.1,5.5c-41.5,13.9-83.1,27.7-124.6,41.5c-28.3,9.4-56.7,18.8-85,28.2C267.4,266.1,258.8,267.7,249,267.4z"/>
	<path class="st0" d="M98.2,241.9c11.9,4,23.2,7.7,34.5,11.4c29.9,9.9,59.9,19.7,89.7,29.9c19,6.5,37.8,6,56.7-0.4
		c39.7-13.4,79.4-26.5,119.2-39.7c1.1-0.4,2.2-0.6,3.8-1c0,1.6,0,2.9,0,4.2c0,30.1-0.1,60.2,0.1,90.3c0,6.4-2.1,11.3-6.4,15.7
		c-8.4,8.8-18.7,14.7-29.5,19.8c-23.1,10.9-47.6,17.2-72.8,20.8c-19.9,2.9-39.9,3.8-60,2.7c-38.9-2.2-76.5-10-110.9-29.3
		c-7.3-4.1-14.1-8.9-19.6-15.4c-3.3-3.9-4.9-8.2-4.9-13.4c0.1-30.4,0.1-60.9,0.1-91.3C98.2,244.9,98.2,243.7,98.2,241.9z"/>
	<path class="st0" d="M471.4,218.8c0,2.1,0,3.6,0,5c0,21.2,0,42.5,0.1,63.7c0,2,0.7,4.2,1.5,6.1c3.8,9.2,8.2,18.2,11.6,27.6
		c5,13.4,1.5,25.2-8.6,34.9c-3.8,3.7-8.3,6.8-12.7,9.9c-1,0.7-3.2,0.8-4.1,0.1c-5.8-4.7-11.9-9.2-16.8-14.7
		c-7.6-8.6-8.6-19-4.8-29.6c3.3-9,7.5-17.7,11-26.7c1.2-3,2.3-6.3,2.3-9.5c0.2-18.7,0.2-37.5,0-56.2c0-3.1,0.9-4.4,3.8-5.2
		C460.2,222.7,465.4,220.8,471.4,218.8z"/>
</g>
</svg>
