<?xml version="1.0" encoding="utf-8"?>
<!-- Generator: Adobe Illustrator 23.0.2, SVG Export Plug-In . SVG Version: 6.00 Build 0)  -->
<svg version="1.1" id="Layer_1" xmlns="http://www.w3.org/2000/svg" xmlns:xlink="http://www.w3.org/1999/xlink" x="0px" y="0px"
	 viewBox="0 0 500 500" style="enable-background:new 0 0 500 500;" xml:space="preserve">
<style type="text/css">
	.st0{fill:#222831;}
</style>
<g>
	<path class="st0" d="M0,424.7c2.6-7.1,4.3-14.7,8-21.2c10.5-18.5,26.7-28.8,48.1-30.6c0.6-0.1,1.3-0.2,2.6-0.4c0-2,0-4.1,0-6.1
		c0-81.7,0-163.4,0-245.1c0-17.8,7.5-28,24.5-33.7c8.5-2.8,16.9-5.8,25.4-8.5c2.8-0.9,3.7-2.2,3.7-5.1c-0.2-13-0.1-26-0.1-39.1
		c0.1-14.2,9.6-23.8,23.3-24c13.1-0.1,23.4,10.4,23.5,24.1c0.1,8.7,0,17.5,0,26.9c10.2-3.4,19.8-6.5,29.2-9.7
		c30.4-10.2,60.9-20.5,91.3-30.8c4.6-1.6,8.1-0.8,11.5,2.5c21.8,21.2,43.7,42.4,65.6,63.5c7.4,7.1,10.8,15.5,10.8,25.7
		c-0.2,28.3,0,56.6-0.1,84.9c0,6.8-2.3,9.9-7.3,9.9c-5,0-7.5-3.2-7.5-9.8c0-28.5-0.1-57,0-85.4c0-5.6-1.7-10.1-5.7-14
		c-17.6-17-35.1-33.9-52.6-50.9c-0.5-0.5-1.2-0.9-2.3-1.8c0,60.8,0,120.9,0,181.8c1.9,0,3.8,0,5.7,0c39.4,0,78.8,0,118.1,0
		c18.1,0,27.4,9.2,27.4,27.2c0,37.1,0,74.2,0,111.3c0,1.9,0,3.9,0,6.5c3.9,0,7.6-0.2,11.2,0c25.5,1.3,45.3,22,45.4,47.6
		c0.1,16.3,0,32.5,0,48.8c0,11.6-7.5,19.2-19.1,19.6c-1.8,0.1-3.6,0-5.4,0c-150.2,0-300.4-0.1-450.6,0.1c-11.3,0-20-2.8-24.9-13.6
		C0,458.6,0,441.6,0,424.7z M276.7,146.4c-2.1,0.6-3.6,1.1-5.1,1.6c-37.7,12.6-75.3,25.3-113,37.9c-11.8,4-23.6,8.1-35.5,11.9
		c-6.7,2.2-12.6-2.5-10.4-8.5c0.9-2.4,3.9-4.8,6.5-5.7c16.5-5.8,33.2-11.3,49.8-16.9c34.6-11.6,69.2-23.3,103.8-35
		c1.5-0.5,3.8-1.8,3.8-2.8c0.3-11.6,0.2-23.3,0.2-35.3c-2.2,0.7-3.7,1.1-5.2,1.7c-37.5,12.6-75.1,25.2-112.6,37.8
		c-12,4-23.9,8.3-36,12c-2.5,0.7-6.2-0.1-8.4-1.6c-1.5-1.1-2.6-5.1-1.7-6.9c1.1-2.4,3.9-4.7,6.5-5.6c18.4-6.5,36.9-12.5,55.3-18.7
		c32.6-11,65.2-21.9,97.8-33c1.7-0.6,4.1-2.3,4.2-3.6c0.3-12.2,0.2-24.3,0.2-37.1c-2.3,0.6-4,0.9-5.6,1.5
		c-61.2,20.5-122.4,41.1-183.6,61.7c-10.6,3.6-14,8.4-14,20c0,115.5,0,231.1,0,346.6c0,1.7,0.1,3.4,0.2,5.2c13,0,25.5,0,38.5,0
		c0-2,0-3.8,0-5.5c0-15.8,0-31.6,0-47.4c0-10.6,4.6-16.5,14.9-19.4c21.5-6.1,43.1-12.2,64.7-18.1c12.7-3.5,22,3.6,22,16.9
		c0,22.8,0,45.6,0,68.3c0,1.7,0,3.5,0,5.2c21.3,0,41.9,0,62.7,0c0-56.4,0-112.5,0-168.8c-1.7,0.5-3.1,0.8-4.4,1.2
		c-29.2,9.8-58.4,19.6-87.6,29.5c-6.3,2.1-10.4,0.7-12-4.2c-1.4-4.5,1.1-7.8,7.5-9.9c5.8-2,11.7-3.9,17.5-5.9
		c25.1-8.4,50.1-16.8,75.2-25.4c1.6-0.5,3.9-2.1,3.9-3.3c0.3-11.5,0.2-23,0.2-34.9c-2.2,0.7-3.7,1.1-5.2,1.6
		c-38.6,12.9-77.2,25.9-115.8,38.8c-10.9,3.7-21.8,7.6-32.8,10.9c-2.5,0.7-6.3-0.1-8.4-1.6c-1.5-1.1-2.6-5.1-1.8-6.8
		c1.1-2.4,3.9-4.7,6.5-5.6c20.2-7.1,40.6-13.8,60.9-20.6c30.8-10.4,61.5-20.8,92.3-31c3.4-1.1,4.5-2.6,4.4-6.1
		c-0.2-9.3-0.1-18.5-0.1-27.8c0-1.4-0.2-2.7-0.4-4.4c-1.8,0.6-3.2,1-4.6,1.4c-36.8,12.3-73.5,24.7-110.3,37
		c-12.8,4.3-25.5,8.7-38.3,12.9c-6.5,2.1-11.4-1.4-10.9-7.4c0.4-4.1,3.2-5.7,6.6-6.9c22.5-7.5,44.9-15,67.4-22.6
		c28.8-9.7,57.5-19.3,86.2-29.1c1.6-0.5,4-2.1,4-3.2C276.8,169.9,276.7,158.3,276.7,146.4z M292.2,242.8c0,62.3,0,123.9,0,185.3
		c36,0,71.5,0,107.3,0c0-2.7-0.1-4.9,0-7.2c0.6-18.7,8.8-33,25.2-42.3c2.9-1.7,4-3.4,4-6.7c-0.1-38.9-0.1-77.8-0.1-116.6
		c0-9.9-2.6-12.5-12.4-12.5c-39.5,0-79.1,0-118.6,0C295.9,242.8,294.2,242.8,292.2,242.8z M399.1,473.6c0-10.3,0-20.3,0-30.1
		c-35.9,0-71.5,0-107,0c0,10.2,0,20,0,30.1C327.9,473.6,363.3,473.6,399.1,473.6z M484.9,428.3c1.9-16-3.9-29.6-16.3-36.2
		c-13.7-7.3-27.6-6.9-40.5,2.1c-10.8,7.5-15.9,21.5-13,34.1C438.2,428.3,461.4,428.3,484.9,428.3z M414.6,473.8
		c22.6,0,44.7,0.1,66.8-0.2c1.3,0,3.7-2.5,3.8-3.9c0.4-8.7,0.2-17.4,0.2-26.3c-23.8,0-47.1,0-70.7,0
		C414.6,453.5,414.6,463.3,414.6,473.8z M170.6,404.4c0,23.2,0,46.1,0,69.1c9.5,0,18.7,0,27.9,0c0-25.6,0-50.8,0-76.8
		C188.9,399.4,179.8,401.9,170.6,404.4z M155.1,473.6c0-21.7,0-43,0-64.8c-8.5,2.4-16.7,4.5-24.7,7.2c-1.6,0.5-3.3,3.5-3.3,5.4
		c-0.3,10.2-0.2,20.5-0.2,30.7c0,7.1,0,14.2,0,21.6C136.5,473.6,145.5,473.6,155.1,473.6z M58.5,388c-20-1.8-44.5,21.4-42.6,40.1
		c14.2,0,28.4,0,42.6,0C58.5,414.5,58.5,401.2,58.5,388z M58.3,473.8c0-10.4,0-20.4,0-30.2c-14.8,0-29.1,0-43.7,0
		c0,8.7-0.2,17,0.2,25.3c0.1,1.7,2.2,4.6,3.5,4.6C31.6,473.9,44.9,473.8,58.3,473.8z M126.9,72.6c3.3-1,6-1.8,8.8-2.7
		c8.4-2.8,8.4-2.8,8.4-11.9c0-8.1,0.1-16.2-0.2-24.3c-0.2-5-3.8-7.8-8.8-7.8c-4.6,0.1-8.1,2.8-8.2,7.2
		C126.8,46.2,126.9,59.1,126.9,72.6z"/>
	<path class="st0" d="M144.9,332.9c5.5,0.1,7.9,2.1,8.9,5.6c1,3.6-0.3,6.9-3.6,8.1c-9.7,3.6-19.5,6.9-29.4,9.9
		c-3.5,1.1-6.5-0.7-7.9-4.1c-1.4-3.3-1.1-7.2,2.2-8.6C125.4,339.5,136,336.1,144.9,332.9z"/>
	<path class="st0" d="M359.7,316.3c11.6,0,23.1,0,34.7,0c8.3,0,13.4,4.9,13.6,13.2c0.2,4.7,0.1,9.4,0,14.2
		c-0.1,10.2-4.8,15-14.9,15.1c-18.2,0.1-36.4,0-54.7,0c-4.4,0-8.8,0.1-13.2,0c-9.2-0.2-13.8-4.8-14-13.9c-0.1-5.2-0.1-10.4,0-15.6
		c0.2-8.2,5.1-12.9,13.2-13C336.3,316.3,348,316.3,359.7,316.3z M392.6,343.6c0-4.3,0-8.3,0-12.2c-22.4,0-44.4,0-66.3,0
		c0,4.2,0,8.1,0,12.2C348.5,343.6,370.3,343.6,392.6,343.6z"/>
	<path class="st0" d="M359.8,260.7c11.6,0,23.1,0,34.7,0c8.3,0,13.3,4.9,13.6,13.3c0.1,4.9,0.1,9.8,0,14.6c-0.1,9.7-5,14.5-15,14.5
		c-15.6,0.1-31.2,0-46.9,0c-6.8,0-13.7,0.1-20.5,0c-9.8-0.2-14.3-4.7-14.4-14.4c-0.1-5.2-0.1-10.4,0.1-15.6
		c0.3-7.6,5.2-12.3,12.8-12.4C336,260.6,347.9,260.7,359.8,260.7z M392.7,275.6c-22.3,0-44.3,0-66.3,0c0,4.3,0,8.3,0,12.3
		c22.2,0,44.1,0,66.3,0C392.7,283.8,392.7,279.9,392.7,275.6z"/>
	<path class="st0" d="M335.3,414.9c-3.9,0-7.8,0.1-11.7,0c-6.8-0.2-11.8-4.7-12.1-11.5c-0.3-6.3-0.3-12.7,0-19
		c0.3-6.5,4.5-11.2,10.9-11.5c8.8-0.4,17.6-0.4,26.3,0c6.1,0.3,10.4,4.4,10.8,10.6c0.5,6.9,0.5,14,0,20.9c-0.5,6.4-5.5,10.4-12,10.5
		C343.4,415,339.4,414.9,335.3,414.9z M326.5,387.7c0,4.5,0,8.5,0,12.3c6.3,0,12.3,0,18,0c0-4.3,0-8.3,0-12.3
		C338.3,387.7,332.5,387.7,326.5,387.7z"/>
</g>
</svg>
